# xmcd
#
# Track frame offsets:
#	150
#	17304
#	32069
#	46999
#	63306
#	78722
#	95099
#	109515
#	125105
#	140622
#	157932
#	172676
#
# Disc length: 2470 seconds
#
# Revision: 1
# Processed by: cddbd v1.5.2PL0 Copyright (c) Steve Scherf et al.
# Submitted via: audiograbber 1.83.01
#
DISCID=9309a40c
DTITLE=Michael Larsen - Hast denn geglaubt
DYEAR=2002
DGENRE=Schlager
TTITLE0=Michael Larsen - Hast du denn gelaubt
TTITLE1=Michael Larsen -  Alice im Wunderland
TTITLE2=Michael Larsen - Irren ist Menschlich
TTITLE3=Michael Larsen - Die stärkste Frau der Welt
TTITLE4=Michael Larsen - Warscheinlich Blond
TTITLE5=Michael Larsen - Ich kann ja selber nichts dafür
TTITLE6=Michael Larsen -  Lügen haben kurze Beine
TTITLE7=Michael Larsen -  Gefangen 
TTITLE8=Michael Larsen - Ach wie gut, dass niemand weiss
TTITLE9=Michael Larsen -  Wie ein Adler 
TTITLE10=Michael Larsen -  Am Rand einer Wüste
TTITLE11=Michael Larsen - Ich will nen Schlage
EXTD=
EXTT0=
EXTT1=
EXTT2=
EXTT3=
EXTT4=
EXTT5=
EXTT6=
EXTT7=
EXTT8=
EXTT9=
EXTT10=
EXTT11=
PLAYORDER=
